<svg width="24" height="24" viewBox="0 0 24 24" fill="none" xmlns="http://www.w3.org/2000/svg">
<g clip-path="url(#clip0_1081_420)">
<path d="M10.0575 16.7026L8.19749 14.4301C7.94249 14.1188 7.51499 14.0138 7.14749 14.1713L2.94749 15.9713C2.54624 16.1438 2.32874 16.5751 2.42624 17.0026L3.32624 20.9026C3.41999 21.3076 3.77999 21.6001 4.20374 21.6001C7.97999 21.6001 11.4675 20.3851 14.3175 18.3413L11.3175 16.0238C10.9087 16.2676 10.4887 16.5001 10.0575 16.7026V16.7026ZM23.7675 19.5788L17.8162 14.9813C20.1712 12.0151 21.6 8.28381 21.6 4.20006C21.6 3.78006 21.3112 3.41631 20.9025 3.32256L17.0025 2.42256C16.5787 2.32506 16.1437 2.54631 15.9712 2.94381L14.1712 7.14381C14.0137 7.51131 14.1187 7.94256 14.43 8.19381L16.7025 10.0538C16.245 11.0326 15.6562 11.9401 14.9775 12.7838L1.70624 2.52756C1.44374 2.32506 1.06874 2.37006 0.862494 2.63256L0.127494 3.57756C-0.0750057 3.84006 -0.0300057 4.21506 0.232494 4.41756L22.2975 21.4688C22.56 21.6713 22.935 21.6263 23.1412 21.3638L23.8762 20.4151C24.0787 20.1601 24.03 19.7813 23.7675 19.5788V19.5788Z" fill="#DC2828"/>
</g>
<defs>
<clipPath id="clip0_1081_420">
<rect width="24" height="24" fill="white"/>
</clipPath>
</defs>
</svg>
