<svg width="34" height="35" viewBox="0 0 34 35" fill="none" xmlns="http://www.w3.org/2000/svg">
<path d="M23.7024 27.6659L18.3652 25.3221C18.1372 25.2225 17.8838 25.2015 17.6432 25.2623C17.4025 25.3231 17.1876 25.4623 17.0309 25.659L14.6673 28.6181C10.9578 26.8259 7.97254 23.767 6.22355 19.966L9.11136 17.5441C9.30373 17.3838 9.43988 17.1636 9.49921 16.9169C9.55854 16.6702 9.53781 16.4105 9.44017 16.1769L7.1528 10.7081C7.04563 10.4563 6.85609 10.2508 6.61686 10.1269C6.37763 10.003 6.10371 9.96847 5.84233 10.0293L0.886356 11.2012C0.634349 11.2609 0.409508 11.4063 0.24853 11.6137C0.0875516 11.8211 -5.8052e-05 12.0783 2.886e-08 12.3433C2.886e-08 24.868 9.90717 35 22.1112 35C22.37 35.0002 22.6211 34.9104 22.8236 34.7455C23.0262 34.5805 23.1681 34.3501 23.2263 34.0918L24.37 29.0136C24.4291 28.7444 24.3947 28.4626 24.2728 28.2167C24.151 27.9707 23.9493 27.7759 23.7024 27.6659V27.6659Z" fill="#6C63FF"/>
<path d="M12.6509 12.4923C12.6509 12.4923 19.8479 11.3063 21.6952 13.1356C23.5426 14.965 23.3089 20.8622 23.396 22.0051" stroke="#6C63FF" stroke-width="2"/>
<path d="M11.7473 6.38726C11.7473 6.38726 22.8282 5.45184 25.879 8.42831C28.9297 11.4048 29.1365 20.2669 29.3826 22" stroke="#6C63FF" stroke-width="2"/>
</svg>
