<svg width="289" height="204" viewBox="0 0 289 204" fill="none" xmlns="http://www.w3.org/2000/svg">
<g clip-path="url(#clip0_563_524)">
<path d="M231.295 48.3867H230.109V17.7384C230.109 15.409 229.622 13.1024 228.677 10.9502C227.731 8.7981 226.345 6.84264 224.599 5.19547C222.852 3.54831 220.778 2.2417 218.495 1.35026C216.213 0.458822 213.767 2.2045e-06 211.296 0H142.433C137.443 -1.03882e-05 132.659 1.86884 129.131 5.19543C125.603 8.52202 123.62 13.0338 123.62 17.7384V185.877C123.62 190.582 125.602 195.094 129.13 198.42C132.658 201.747 137.443 203.616 142.433 203.616H211.296C216.286 203.616 221.071 201.747 224.598 198.42C228.126 195.094 230.108 190.582 230.109 185.877V70.2027H231.295L231.295 48.3867Z" fill="#E6E6E6"/>
<path d="M226.104 17.8622V185.754C226.104 189.267 224.624 192.637 221.989 195.121C219.355 197.605 215.781 199.001 212.055 199.001H142.861C139.135 199.001 135.562 197.605 132.927 195.121C130.292 192.637 128.812 189.267 128.812 185.754V17.8622C128.812 14.3488 130.292 10.9793 132.927 8.49491C135.562 6.01054 139.135 4.61481 142.861 4.61475H151.255C150.843 5.57046 150.686 6.6071 150.798 7.63348C150.91 8.65987 151.288 9.64454 151.898 10.5009C152.509 11.3572 153.333 12.059 154.299 12.5445C155.264 13.03 156.341 13.2843 157.436 13.285H196.887C197.981 13.2843 199.059 13.03 200.024 12.5445C200.99 12.059 201.814 11.3572 202.424 10.5009C203.035 9.64453 203.413 8.65986 203.525 7.63348C203.637 6.6071 203.48 5.57046 203.067 4.61475H212.055C215.781 4.61481 219.355 6.01054 221.989 8.49491C224.624 10.9793 226.104 14.3488 226.104 17.8622V17.8622Z" fill="white"/>
<path d="M44.0383 167.408C43.5003 167.408 42.9804 167.225 42.5744 166.893L39.2747 164.179C38.8307 163.812 38.5587 163.295 38.5181 162.74C38.4775 162.185 38.6717 161.638 39.0582 161.217L63.051 135.279C63.0986 135.226 63.1496 135.176 63.2038 135.129C63.6061 134.773 64.1344 134.57 64.6862 134.561C65.2379 134.552 65.7737 134.736 66.1893 135.078L69.4913 137.792C69.7115 137.973 69.8916 138.193 70.0215 138.44C70.1513 138.687 70.2283 138.955 70.248 139.23L70.2481 139.231C70.2681 139.506 70.2304 139.782 70.1371 140.043C70.0438 140.304 69.8968 140.546 69.7044 140.753L45.715 166.691C45.506 166.917 45.2482 167.097 44.959 167.221C44.6698 167.345 44.3558 167.409 44.0383 167.408L44.0383 167.408Z" fill="#BC63FF"/>
<path d="M88.1164 140.423C87.8852 140.423 87.6554 140.39 87.4347 140.325C87.1559 140.241 86.8975 140.107 86.6741 139.929C86.4508 139.75 86.267 139.533 86.1333 139.287L84.1272 135.616C83.8991 135.202 83.8249 134.727 83.9167 134.267C84.0085 133.808 84.2609 133.391 84.6335 133.083C84.7695 132.967 84.9209 132.869 85.0839 132.79L117.527 117.019C118.052 116.765 118.662 116.717 119.223 116.886C119.785 117.055 120.253 117.427 120.525 117.921L122.531 121.592C122.8 122.087 122.85 122.662 122.671 123.192C122.492 123.721 122.097 124.162 121.573 124.419L89.1311 140.189C88.8175 140.343 88.4696 140.423 88.1164 140.423V140.423Z" fill="#BC63FF"/>
<path d="M87.532 141.313C87.1183 141.312 86.7132 141.202 86.3611 140.998C86.0089 140.793 85.7234 140.501 85.5359 140.153L83.5717 136.463C83.3336 136.017 83.2728 135.505 83.4002 135.021C83.4089 134.984 83.4218 134.943 83.4345 134.904L83.4462 134.867C83.481 134.771 83.5152 134.633 83.5548 134.474L83.5778 134.382C83.723 133.788 83.9039 133.048 84.2668 132.74C84.3121 132.701 84.3632 132.667 84.4185 132.641L98.662 124.499C98.9253 124.371 99.213 124.294 99.5083 124.272C99.8036 124.25 100.101 124.284 100.382 124.371C100.941 124.548 101.404 124.925 101.67 125.421L105.266 132.411C105.529 132.908 105.572 133.484 105.386 134.011C105.2 134.539 104.8 134.975 104.273 135.225L88.5003 141.097C88.2001 141.24 87.8684 141.314 87.532 141.313Z" fill="#2F2E41"/>
<path d="M76.8657 121.941C85.6359 121.941 92.7456 115.237 92.7456 106.967C92.7456 98.6975 85.6359 91.9937 76.8657 91.9937C68.0955 91.9937 60.9858 98.6975 60.9858 106.967C60.9858 115.237 68.0955 121.941 76.8657 121.941Z" fill="#BC63FF"/>
<path d="M72.8802 203.866H68.5007C67.9107 203.865 67.345 203.644 66.9278 203.25C66.5106 202.857 66.276 202.324 66.2753 201.767V166.792C66.276 166.236 66.5106 165.702 66.9278 165.309C67.345 164.916 67.9107 164.694 68.5007 164.694H72.8802C73.156 164.693 73.4293 164.742 73.6857 164.838C74.0876 164.984 74.4356 165.237 74.6867 165.567C74.9379 165.897 75.0812 166.289 75.0991 166.695C75.1043 166.727 75.1065 166.76 75.1056 166.792V201.767C75.1049 202.324 74.8703 202.857 74.4531 203.25C74.0359 203.644 73.4702 203.865 72.8802 203.866V203.866Z" fill="#BC63FF"/>
<path d="M97.2908 182.423C97.2698 182.391 97.2471 182.359 97.2227 182.328C97.1627 182.195 97.087 182.068 96.9972 181.951L89.5318 172.102L83.3809 163.992H72.8891L73.6309 164.968L74.9513 166.711L79.0429 172.105L87.8109 183.668L79.6838 199.062C79.3515 199.688 79.9182 200.589 80.942 201.071L84.8616 202.912C85.2507 203.099 85.6799 203.2 86.1167 203.208C86.6685 203.208 87.1284 203.015 87.3213 202.649L97.4244 183.512C97.504 183.335 97.5336 183.142 97.5102 182.951C97.4867 182.76 97.4112 182.578 97.2908 182.423V182.423Z" fill="#BC63FF"/>
<path d="M61.5846 150.453C61.0037 150.451 60.4467 150.234 60.0322 149.851L54.09 144.477C53.742 144.156 53.5169 143.734 53.4498 143.279C53.4334 143.185 53.425 143.09 53.4246 142.994C53.4235 142.886 53.4322 142.778 53.4505 142.671C53.5172 142.23 53.7334 141.821 54.0669 141.505L66.7035 131.205C67.0459 130.872 67.9144 130.941 68.6805 131.002L68.7962 131.011C68.9374 131.025 69.0792 131.033 69.2212 131.034C69.2736 131.039 69.3345 131.036 69.3906 131.039C69.9222 131.074 70.4232 131.287 70.8034 131.639L73.9219 134.538C74.3416 134.929 74.5797 135.461 74.5839 136.017C74.5881 136.573 74.3581 137.109 73.9443 137.505L63.1942 149.812C62.9859 150.016 62.7359 150.178 62.4592 150.288C62.1825 150.398 61.885 150.455 61.5846 150.453V150.453Z" fill="#2F2E41"/>
<path d="M76.2353 113.076L76.2188 112.517C77.3228 112.488 78.2961 112.422 79.0275 111.919C79.2348 111.768 79.4052 111.576 79.5272 111.358C79.6491 111.139 79.7197 110.898 79.7341 110.652C79.7469 110.501 79.7227 110.35 79.6634 110.209C79.6041 110.069 79.5112 109.943 79.392 109.842C78.9065 109.455 78.1253 109.58 77.5559 109.827L77.0649 110.039L78.0065 103.551L78.5944 103.627L77.7935 109.146C78.5672 108.931 79.284 109.024 79.775 109.415C79.9636 109.57 80.1115 109.764 80.2072 109.982C80.303 110.2 80.344 110.436 80.327 110.671C80.3097 111.003 80.2157 111.327 80.0517 111.62C79.8877 111.914 79.6576 112.17 79.3775 112.371C78.4378 113.018 77.2166 113.05 76.2353 113.076Z" fill="#2F2E41"/>
<path d="M84.6981 104.103H81.502V104.662H84.6981V104.103Z" fill="#2F2E41"/>
<path d="M74.6098 104.103H71.4137V104.662H74.6098V104.103Z" fill="#2F2E41"/>
<path d="M91.2794 172.245H63.0915C62.0101 172.245 61.1629 170.607 61.1629 168.516V142.309C61.1637 139.098 62.249 135.971 64.2614 133.38C66.2738 130.789 69.1087 128.871 72.3554 127.901C72.3122 127.717 72.2902 127.529 72.2897 127.341C72.2906 126.636 72.5878 125.961 73.1162 125.462C73.6447 124.964 74.3612 124.684 75.1085 124.683H79.2625C80.0098 124.684 80.7263 124.964 81.2547 125.462C81.7832 125.961 82.0804 126.636 82.0813 127.341C82.0808 127.53 82.0587 127.718 82.0154 127.902C83.5838 128.368 85.0662 129.06 86.4098 129.954C86.6862 130.137 86.9587 130.331 87.2192 130.531C89.526 132.275 91.2746 134.588 92.2707 137.212C92.4344 137.639 92.5795 138.08 92.7019 138.525L92.702 138.525C93.0384 139.762 93.2084 141.033 93.2081 142.309V168.516C93.2081 170.555 92.3902 172.181 91.3415 172.238C91.3213 172.243 91.3004 172.246 91.2794 172.245V172.245Z" fill="#2F2E41"/>
<path d="M75.5536 181.757H64.2784C63.7671 181.757 63.2769 181.565 62.9153 181.224C62.5537 180.883 62.3503 180.421 62.3498 179.939V171.546C62.3503 171.063 62.5537 170.601 62.9153 170.26C63.2769 169.919 63.7671 169.728 64.2784 169.727H75.5536C76.0649 169.728 76.5551 169.919 76.9167 170.26C77.2782 170.601 77.4816 171.063 77.4822 171.546V179.939C77.4816 180.421 77.2782 180.883 76.9167 181.224C76.5551 181.565 76.0649 181.757 75.5536 181.757Z" fill="#2F2E41"/>
<path d="M82.5029 181.947C82.1091 181.947 81.7246 181.834 81.4011 181.622C81.0777 181.41 80.8305 181.11 80.6929 180.762L77.5926 172.894C77.4151 172.442 77.435 171.942 77.648 171.504C77.861 171.066 78.2497 170.725 78.7288 170.556L89.298 166.853C89.7775 166.686 90.3078 166.705 90.7727 166.906C91.2375 167.107 91.5989 167.473 91.7776 167.925L94.8779 175.792C95.0554 176.245 95.0355 176.745 94.8225 177.183C94.6095 177.621 94.2208 177.962 93.7417 178.131L83.1725 181.834C82.9583 181.909 82.7315 181.947 82.5029 181.947V181.947Z" fill="#2F2E41"/>
<path d="M69.3999 99.8848C72.3428 98.2811 75.9117 99.5114 78.9516 100.184C82.1997 100.903 85.6334 101.058 88.6949 99.6063C91.2428 98.3976 93.2661 96.0147 93.5087 93.2844C93.7354 90.7322 92.2107 88.0128 89.6324 87.0554C87.0056 86.0799 83.6618 87.3562 82.7038 89.8978L83.5173 89.7975C80.3689 85.9002 76.4881 81.8786 71.0728 81.1198C68.6432 80.7793 66.0501 81.0889 63.9741 82.3971C62.0283 83.6233 60.7749 85.5168 60.036 87.5786C59.1786 89.9709 58.9543 92.5325 58.7992 95.0378C58.7658 95.5774 59.656 95.5756 59.6893 95.0378C59.933 91.1035 60.3283 86.3581 63.7398 83.6094C65.5105 82.1826 67.8752 81.6858 70.1582 81.8582C72.5833 82.0413 74.8318 82.9891 76.7812 84.3301C79.1172 85.9372 81.0072 88.0654 82.7487 90.2211C82.7948 90.2898 82.8608 90.3446 82.9389 90.379C83.017 90.4135 83.1039 90.4262 83.1893 90.4157C83.2748 90.4051 83.3553 90.3718 83.4213 90.3196C83.4874 90.2674 83.5363 90.1984 83.5622 90.1209C84.3311 88.0808 87.0297 87.1292 89.1296 87.774C91.5045 88.5033 92.8177 91.0427 92.6185 93.2844C92.3904 95.8515 90.3068 98.0106 87.8977 99.0382C84.9955 100.276 81.8158 99.9737 78.8124 99.2902C75.6223 98.5643 72.0193 97.4878 68.9506 99.1601C68.8529 99.2182 68.783 99.3098 68.7557 99.4156C68.7283 99.5214 68.7456 99.6331 68.8038 99.7271C68.8621 99.8211 68.9569 99.8901 69.0681 99.9196C69.1793 99.949 69.2982 99.9365 69.3999 99.8848V99.8848Z" fill="#2F2E41"/>
<path d="M146.55 20.186C145.303 20.186 144.068 20.4176 142.916 20.8675C141.764 21.3174 140.717 21.9769 139.836 22.8082C138.954 23.6396 138.255 24.6265 137.777 25.7128C137.3 26.799 137.055 27.9632 137.055 29.1389C137.055 30.3146 137.3 31.4788 137.777 32.565C138.255 33.6512 138.954 34.6382 139.836 35.4695C140.717 36.3009 141.764 36.9603 142.916 37.4103C144.068 37.8602 145.303 38.0918 146.549 38.0918H146.55C149.068 38.0918 151.483 37.1485 153.263 35.4695C155.044 33.7906 156.044 31.5134 156.044 29.1389C156.044 26.7645 155.044 24.4873 153.263 22.8083C151.483 21.1293 149.068 20.186 146.55 20.186Z" fill="#F2F2F2"/>
<path d="M215.488 36.6932H165.64C165.01 36.6932 164.406 36.4574 163.961 36.0377C163.516 35.6179 163.266 35.0486 163.266 34.455C163.266 33.8614 163.516 33.2921 163.961 32.8724C164.406 32.4526 165.01 32.2168 165.64 32.2168H215.488C216.117 32.2168 216.721 32.4526 217.166 32.8724C217.611 33.2921 217.861 33.8614 217.861 34.455C217.861 35.0486 217.611 35.6179 217.166 36.0377C216.721 36.4574 216.117 36.6932 215.488 36.6932Z" fill="#F2F2F2"/>
<path d="M181.366 27.1805H165.64C165.01 27.1805 164.406 26.9447 163.961 26.525C163.516 26.1052 163.266 25.5359 163.266 24.9423C163.266 24.3487 163.516 23.7794 163.961 23.3597C164.406 22.9399 165.01 22.7041 165.64 22.7041H181.366C181.995 22.7041 182.599 22.9399 183.044 23.3597C183.489 23.7794 183.739 24.3487 183.739 24.9423C183.739 25.5359 183.489 26.1052 183.044 26.525C182.599 26.9447 181.995 27.1805 181.366 27.1805Z" fill="#F2F2F2"/>
<path d="M146.55 57.6763C145.303 57.6763 144.068 57.9078 142.916 58.3578C141.764 58.8077 140.717 59.4671 139.836 60.2985C138.954 61.1298 138.255 62.1168 137.777 63.203C137.3 64.2892 137.055 65.4534 137.055 66.6291C137.055 67.8048 137.3 68.969 137.777 70.0552C138.255 71.1414 138.954 72.1284 139.836 72.9598C140.717 73.7911 141.764 74.4506 142.916 74.9005C144.068 75.3504 145.303 75.582 146.549 75.582H146.55C149.068 75.582 151.483 74.6388 153.263 72.9598C155.044 71.2808 156.044 69.0036 156.044 66.6291C156.044 64.2547 155.044 61.9775 153.263 60.2985C151.483 58.6195 149.068 57.6763 146.55 57.6763Z" fill="#F2F2F2"/>
<path d="M215.488 74.1835H165.64C165.01 74.1835 164.406 73.9477 163.961 73.5279C163.516 73.1082 163.266 72.5389 163.266 71.9452C163.266 71.3516 163.516 70.7823 163.961 70.3626C164.406 69.9428 165.01 69.707 165.64 69.707H215.488C216.117 69.707 216.721 69.9428 217.166 70.3626C217.611 70.7823 217.861 71.3516 217.861 71.9452C217.861 72.5389 217.611 73.1082 217.166 73.5279C216.721 73.9477 216.117 74.1835 215.488 74.1835Z" fill="#F2F2F2"/>
<path d="M181.366 64.6708H165.64C165.01 64.6708 164.406 64.435 163.961 64.0152C163.516 63.5955 163.266 63.0262 163.266 62.4326C163.266 61.8389 163.516 61.2696 163.961 60.8499C164.406 60.4301 165.01 60.1943 165.64 60.1943H181.366C181.995 60.1943 182.599 60.4301 183.044 60.8499C183.489 61.2696 183.739 61.8389 183.739 62.4326C183.739 63.0262 183.489 63.5955 183.044 64.0152C182.599 64.435 181.995 64.6708 181.366 64.6708Z" fill="#F2F2F2"/>
<path d="M146.55 132.657C144.031 132.657 141.616 133.6 139.836 135.279C138.055 136.958 137.055 139.235 137.055 141.61C137.055 143.984 138.055 146.261 139.836 147.94C141.616 149.619 144.031 150.562 146.549 150.562H146.55C149.068 150.562 151.483 149.619 153.263 147.94C155.044 146.261 156.044 143.984 156.044 141.61C156.044 139.235 155.044 136.958 153.263 135.279C151.483 133.6 149.068 132.657 146.55 132.657Z" fill="#F2F2F2"/>
<path d="M215.488 149.163H165.64C165.01 149.163 164.406 148.928 163.961 148.508C163.516 148.088 163.266 147.519 163.266 146.925C163.266 146.332 163.516 145.762 163.961 145.343C164.406 144.923 165.01 144.687 165.64 144.687H215.488C216.117 144.687 216.721 144.923 217.166 145.343C217.611 145.762 217.861 146.332 217.861 146.925C217.861 147.519 217.611 148.088 217.166 148.508C216.721 148.928 216.117 149.163 215.488 149.163Z" fill="#F2F2F2"/>
<path d="M181.366 139.651H165.64C165.01 139.651 164.406 139.415 163.961 138.996C163.516 138.576 163.266 138.007 163.266 137.413C163.266 136.819 163.516 136.25 163.961 135.83C164.406 135.411 165.01 135.175 165.64 135.175H181.366C181.995 135.175 182.599 135.411 183.044 135.83C183.489 136.25 183.739 136.819 183.739 137.413C183.739 138.007 183.489 138.576 183.044 138.996C182.599 139.415 181.995 139.651 181.366 139.651Z" fill="#F2F2F2"/>
<path d="M146.55 170.147C145.303 170.147 144.068 170.379 142.916 170.828C141.764 171.278 140.717 171.938 139.836 172.769C138.954 173.601 138.255 174.587 137.777 175.674C137.3 176.76 137.055 177.924 137.055 179.1C137.055 180.276 137.3 181.44 137.777 182.526C138.255 183.612 138.954 184.599 139.836 185.43C140.717 186.262 141.764 186.921 142.916 187.371C144.068 187.821 145.303 188.053 146.549 188.053H146.55C149.068 188.053 151.483 187.109 153.263 185.43C155.044 183.751 156.044 181.474 156.044 179.1C156.044 176.725 155.044 174.448 153.263 172.769C151.483 171.09 149.068 170.147 146.55 170.147Z" fill="#F2F2F2"/>
<path d="M215.488 186.654H165.64C165.01 186.654 164.406 186.418 163.961 185.998C163.516 185.578 163.266 185.009 163.266 184.415C163.266 183.822 163.516 183.253 163.961 182.833C164.406 182.413 165.01 182.177 165.64 182.177H215.488C216.117 182.177 216.721 182.413 217.166 182.833C217.611 183.253 217.861 183.822 217.861 184.415C217.861 185.009 217.611 185.578 217.166 185.998C216.721 186.418 216.117 186.654 215.488 186.654Z" fill="#F2F2F2"/>
<path d="M181.366 177.141H165.64C165.01 177.141 164.406 176.906 163.961 176.486C163.516 176.066 163.266 175.497 163.266 174.903C163.266 174.31 163.516 173.74 163.961 173.321C164.406 172.901 165.01 172.665 165.64 172.665H181.366C181.995 172.665 182.599 172.901 183.044 173.321C183.489 173.74 183.739 174.31 183.739 174.903C183.739 175.497 183.489 176.066 183.044 176.486C182.599 176.906 181.995 177.141 181.366 177.141Z" fill="#F2F2F2"/>
<path d="M234.724 125.662H120.192C118.894 125.661 117.65 125.174 116.732 124.309C115.814 123.443 115.298 122.27 115.296 121.046V86.3536C115.298 85.1297 115.814 83.9564 116.732 83.0909C117.65 82.2255 118.894 81.7387 120.192 81.7373H234.724C236.022 81.7387 237.266 82.2255 238.184 83.0909C239.102 83.9564 239.618 85.1297 239.62 86.3536V121.046C239.618 122.27 239.102 123.443 238.184 124.309C237.266 125.174 236.022 125.661 234.724 125.662Z" fill="white"/>
<path d="M146.55 94.7471C144.031 94.7471 141.616 95.6903 139.836 97.3693C138.055 99.0483 137.055 101.325 137.055 103.7C137.055 106.074 138.055 108.352 139.836 110.031C141.616 111.71 144.031 112.653 146.549 112.653H146.55C149.068 112.653 151.483 111.71 153.263 110.031C155.044 108.352 156.044 106.074 156.044 103.7C156.044 101.325 155.044 99.0483 153.263 97.3693C151.483 95.6903 149.068 94.7471 146.55 94.7471Z" fill="#BC63FF"/>
<path d="M215.488 111.254H165.64C165.01 111.254 164.406 111.018 163.961 110.598C163.516 110.178 163.266 109.609 163.266 109.016C163.266 108.422 163.516 107.853 163.961 107.433C164.406 107.013 165.01 106.777 165.64 106.777H215.488C216.117 106.777 216.721 107.013 217.166 107.433C217.611 107.853 217.861 108.422 217.861 109.016C217.861 109.609 217.611 110.178 217.166 110.598C216.721 111.018 216.117 111.254 215.488 111.254Z" fill="#CCCCCC"/>
<path d="M181.366 101.742H165.64C165.01 101.742 164.406 101.506 163.961 101.086C163.516 100.666 163.266 100.097 163.266 99.5034C163.266 98.9097 163.516 98.3405 163.961 97.9207C164.406 97.501 165.01 97.2651 165.64 97.2651H181.366C181.995 97.2651 182.599 97.501 183.044 97.9207C183.489 98.3405 183.739 98.9097 183.739 99.5034C183.739 100.097 183.489 100.666 183.044 101.086C182.599 101.506 181.995 101.742 181.366 101.742Z" fill="#CCCCCC"/>
<path d="M234.724 125.662H120.192C118.894 125.661 117.65 125.174 116.732 124.309C115.814 123.443 115.298 122.27 115.296 121.046V86.3536C115.298 85.1297 115.814 83.9564 116.732 83.0909C117.65 82.2255 118.894 81.7387 120.192 81.7373H234.724C236.022 81.7387 237.266 82.2255 238.184 83.0909C239.102 83.9564 239.618 85.1297 239.62 86.3536V121.046C239.618 122.27 239.102 123.443 238.184 124.309C237.266 125.174 236.022 125.661 234.724 125.662ZM120.192 82.0171C118.973 82.0184 117.804 82.4757 116.942 83.2887C116.079 84.1016 115.594 85.2039 115.593 86.3536V121.046C115.594 122.196 116.079 123.298 116.942 124.111C117.804 124.924 118.973 125.381 120.192 125.383H234.724C235.943 125.381 237.112 124.924 237.975 124.111C238.837 123.298 239.322 122.196 239.323 121.046V86.3536C239.322 85.2039 238.837 84.1016 237.975 83.2887C237.112 82.4757 235.943 82.0184 234.724 82.0171H120.192Z" fill="#3F3D56"/>
<path d="M145.649 107.418C145.399 107.419 145.155 107.342 144.955 107.201L144.943 107.192L142.332 105.309C142.088 105.132 141.928 104.872 141.888 104.584C141.848 104.297 141.931 104.006 142.118 103.776C142.305 103.545 142.581 103.395 142.886 103.357C143.191 103.319 143.5 103.396 143.744 103.572L145.435 104.795L149.432 99.8789C149.524 99.765 149.64 99.6693 149.772 99.5974C149.904 99.5256 150.049 99.4789 150.2 99.4601C150.351 99.4413 150.505 99.4507 150.652 99.4878C150.799 99.5249 150.937 99.589 151.058 99.6764L151.058 99.6766L151.033 99.7091L151.059 99.6766C151.303 99.8534 151.462 100.114 151.502 100.402C151.543 100.689 151.46 100.98 151.273 101.21L146.573 106.99C146.464 107.124 146.324 107.231 146.164 107.305C146.004 107.379 145.828 107.418 145.65 107.417L145.649 107.418Z" fill="white"/>
<path d="M288.703 204H0.296715C0.218021 204 0.14255 203.971 0.0869055 203.918C0.0312607 203.866 0 203.794 0 203.72C0 203.646 0.0312607 203.575 0.0869055 203.522C0.14255 203.47 0.218021 203.44 0.296715 203.44H288.703C288.782 203.44 288.857 203.47 288.913 203.522C288.969 203.575 289 203.646 289 203.72C289 203.794 288.969 203.866 288.913 203.918C288.857 203.971 288.782 204 288.703 204Z" fill="#CCCCCC"/>
</g>
<defs>
<clipPath id="clip0_563_524">
<rect width="289" height="204" fill="white"/>
</clipPath>
</defs>
</svg>
