<svg width="35" height="35" viewBox="0 0 35 35" fill="none" xmlns="http://www.w3.org/2000/svg">
<path d="M17.5376 0.546875C7.96523 0.546875 0.546875 7.54277 0.546875 16.9921C0.546875 21.9345 2.57783 26.2056 5.88369 29.156C6.45449 29.6693 6.33691 29.9667 6.43398 33.1365C6.44163 33.3586 6.50348 33.5753 6.61415 33.768C6.72481 33.9606 6.88093 34.1233 7.06888 34.2417C7.25684 34.3602 7.47092 34.4308 7.69245 34.4475C7.91399 34.4643 8.13625 34.4265 8.33984 34.3376C11.9567 32.7448 12.0032 32.619 12.6164 32.7858C23.0952 35.6699 34.4531 28.9639 34.4531 16.9921C34.4531 7.54277 27.1106 0.546875 17.5376 0.546875ZM27.7396 13.2022L22.7493 21.1025C22.5609 21.3996 22.3131 21.6546 22.0215 21.8514C21.73 22.0483 21.4009 22.1828 21.0549 22.2465C20.7089 22.3102 20.3535 22.3018 20.0109 22.2218C19.6683 22.1417 19.346 21.9918 19.0641 21.7814L15.0938 18.8098C14.9163 18.6766 14.7004 18.6047 14.4785 18.6047C14.2567 18.6047 14.0408 18.6766 13.8633 18.8098L8.50596 22.873C7.79092 23.4151 6.85439 22.5586 7.33633 21.8019L12.3266 13.9016C12.5149 13.6044 12.7627 13.3494 13.0542 13.1525C13.3458 12.9556 13.6749 12.821 14.0209 12.7573C14.3669 12.6936 14.7224 12.702 15.065 12.7821C15.4076 12.8622 15.7299 13.0122 16.0118 13.2228L19.9808 16.1937C20.1583 16.3268 20.3741 16.3987 20.596 16.3987C20.8179 16.3987 21.0337 16.3268 21.2112 16.1937L26.5713 12.1345C27.285 11.589 28.2215 12.4448 27.7396 13.2022V13.2022Z" fill="#DFA535"/>
</svg>
